<svg xmlns="http://www.w3.org/2000/svg" viewBox="0 0 64 64" style="--fur: var(--avatar-color, #9a6b45)"><path d="M11 28 L13 8 L28 18 Z" fill="var(--fur)" stroke="var(--fur)" stroke-width="3" stroke-linejoin="round"/><path d="M53 28 L51 8 L36 18 Z" fill="var(--fur)" stroke="var(--fur)" stroke-width="3" stroke-linejoin="round"/><path d="M15 21 L16 13 L22 17.5 Z" fill="#f2b1b1" stroke="#f2b1b1" stroke-width="2" stroke-linejoin="round"/><path d="M49 21 L48 13 L42 17.5 Z" fill="#f2b1b1" stroke="#f2b1b1" stroke-width="2" stroke-linejoin="round"/><ellipse cx="32" cy="35.5" rx="23" ry="19.5" fill="var(--fur)"/><g fill="none" stroke="#000" stroke-opacity=".22" stroke-width="1.8" stroke-linecap="round"><path d="M32 17.5 V22.5"/><path d="M27.5 18.5 L28.5 22"/><path d="M36.5 18.5 L35.5 22"/></g><ellipse cx="27" cy="42" rx="6.5" ry="5" fill="#fbf3ea"/><ellipse cx="37" cy="42" rx="6.5" ry="5" fill="#fbf3ea"/><circle cx="23.5" cy="32" r="3.3" fill="#2b2622"/><circle cx="24.6" cy="30.8" r="1.1" fill="#fff"/><circle cx="40.5" cy="32" r="3.3" fill="#2b2622"/><circle cx="41.6" cy="30.8" r="1.1" fill="#fff"/><ellipse cx="16.5" cy="38" rx="2.8" ry="1.7" fill="#f29b9b" opacity=".75"/><ellipse cx="47.5" cy="38" rx="2.8" ry="1.7" fill="#f29b9b" opacity=".75"/><path d="M30 38.3 L34 38.3 L32 40.5 Z" fill="#e88a9a" stroke="#e88a9a" stroke-width="1" stroke-linejoin="round"/><path d="M28.5 42 Q30.3 44.5 32 42 Q33.7 44.5 35.5 42" fill="none" stroke="#6b4a36" stroke-width="1.5" stroke-linecap="round"/><g stroke="#fff" stroke-opacity=".75" stroke-width="1" stroke-linecap="round"><path d="M19 41 L10 39.5"/><path d="M19 43.5 L10.5 44.5"/><path d="M45 41 L54 39.5"/><path d="M45 43.5 L53.5 44.5"/></g></svg>
