<svg xmlns="http://www.w3.org/2000/svg" viewBox="0 0 64 64" style="--fur: var(--avatar-color, #9a6b45)"><path d="M32 4 Q43 12 41 21 Q45 18 45 13 Q52 21 46 28 H18 Q12 21 19 13 Q19 18 23 21 Q21 12 32 4 Z" fill="#f08a3a"/><path d="M32 12 Q39 19 37 27 H27 Q25 19 32 12 Z" fill="#f5c542"/><rect x="8" y="24" width="48" height="32" rx="4" fill="var(--fur)"/><g fill="none" stroke="#fff" stroke-opacity=".4" stroke-width="1.3"><path d="M8 32 H56"/><path d="M8 40 H56"/><path d="M8 48 H56"/><path d="M20 24 V32"/><path d="M32 24 V32"/><path d="M44 24 V32"/><path d="M14 32 V40"/><path d="M26 32 V40"/><path d="M38 32 V40"/><path d="M50 32 V40"/><path d="M20 40 V48"/><path d="M32 40 V48"/><path d="M44 40 V48"/><path d="M14 48 V56"/><path d="M26 48 V56"/><path d="M38 48 V56"/><path d="M50 48 V56"/></g><rect x="18" y="30" width="28" height="18" rx="5.5" fill="#eef1f4"/><circle cx="25.5" cy="37" r="2.8" fill="#2b2622"/><circle cx="26.4" cy="36.0" r="0.9" fill="#fff"/><circle cx="38.5" cy="37" r="2.8" fill="#2b2622"/><circle cx="39.4" cy="36.0" r="0.9" fill="#fff"/><ellipse cx="22" cy="42" rx="2.2" ry="1.3" fill="#f29b9b" opacity=".75"/><ellipse cx="42" cy="42" rx="2.2" ry="1.3" fill="#f29b9b" opacity=".75"/><path d="M28.8 41.5 Q32 44.7 35.2 41.5" fill="none" stroke="#6b4a36" stroke-width="1.7" stroke-linecap="round"/></svg>
