<svg xmlns="http://www.w3.org/2000/svg" viewBox="0 0 64 64" style="--fur: var(--avatar-color, #9a6b45)"><path d="M27 45 H37 L39 53 H25 Z" fill="var(--fur)"/><path d="M27 45 H37 L39 53 H25 Z" fill="#000" opacity="0.3"/><rect x="19" y="52" width="26" height="5" rx="2.5" fill="var(--fur)"/><rect x="7" y="9" width="50" height="38" rx="7" fill="var(--fur)"/><rect x="12" y="14" width="40" height="28" rx="4" fill="#262a31"/><g fill="#7ee081"><rect x="21.5" y="21" width="4.5" height="7" rx="2.25"/><rect x="38" y="21" width="4.5" height="7" rx="2.25"/></g><ellipse cx="19" cy="31" rx="3" ry="1.6" fill="#f29b9b" opacity=".55"/><ellipse cx="45" cy="31" rx="3" ry="1.6" fill="#f29b9b" opacity=".55"/><path d="M28 31.5 Q32 35.5 36 31.5" fill="none" stroke="#7ee081" stroke-width="1.9" stroke-linecap="round"/><path d="M15.5 36.5 L18 38.5 L15.5 40.5" fill="none" stroke="#7ee081" stroke-width="1.3" stroke-linecap="round" stroke-linejoin="round" opacity=".7"/><rect x="19.5" y="39.3" width="4" height="1.3" rx=".6" fill="#7ee081" opacity=".7"/></svg>
