<svg xmlns="http://www.w3.org/2000/svg" viewBox="0 0 64 64" style="--fur: var(--avatar-color, #9a6b45)"><line x1="32" y1="14" x2="32" y2="5.5" stroke="#3a3a3a" stroke-width="1.6" stroke-linecap="round"/><circle cx="32" cy="5" r="2.6" fill="#7ee081"/><circle cx="31.2" cy="4.2" r=".8" fill="#fff" opacity=".8"/><rect x="5" y="27" width="7" height="14" rx="2.5" fill="var(--fur)"/><rect x="52" y="27" width="7" height="14" rx="2.5" fill="var(--fur)"/><path d="M5 29.5 Q5 27 7.5 27 H12 V41 H7.5 Q5 41 5 38.5 Z M59 29.5 Q59 27 56.5 27 H52 V41 H56.5 Q59 41 59 38.5 Z" fill="#000" opacity="0.28"/><rect x="10" y="14" width="44" height="40" rx="11" fill="var(--fur)"/><rect x="14" y="16.5" width="36" height="3" rx="1.5" fill="#fff" opacity=".22"/><rect x="15.5" y="22" width="33" height="24" rx="8" fill="#eef1f4"/><circle cx="25" cy="32" r="3.4" fill="#2b2622"/><circle cx="26.1" cy="30.8" r="1.1" fill="#fff"/><circle cx="39" cy="32" r="3.4" fill="#2b2622"/><circle cx="40.1" cy="30.8" r="1.1" fill="#fff"/><ellipse cx="21" cy="39" rx="2.8" ry="1.7" fill="#f29b9b" opacity=".75"/><ellipse cx="43" cy="39" rx="2.8" ry="1.7" fill="#f29b9b" opacity=".75"/><path d="M28 39.5 Q32 43.5 36 39.5" fill="none" stroke="#6b4a36" stroke-width="1.7" stroke-linecap="round"/><g fill="#000" opacity=".22"><rect x="24" y="49" width="3" height="2.5" rx="1"/><rect x="30.5" y="49" width="3" height="2.5" rx="1"/><rect x="37" y="49" width="3" height="2.5" rx="1"/></g></svg>
