<svg xmlns="http://www.w3.org/2000/svg" viewBox="0 0 64 64" style="--fur: var(--avatar-color, #9a6b45)"><g stroke="#3a3a3a" stroke-width="2" stroke-linecap="round"><line x1="16" y1="30" x2="13" y2="12"/><line x1="48" y1="30" x2="51" y2="12"/></g><circle cx="13" cy="11" r="2.8" fill="var(--fur)"/><circle cx="51" cy="11" r="2.8" fill="var(--fur)"/><g fill="none" stroke="#7ee081" stroke-width="2" stroke-linecap="round"><path d="M27.5 21 Q32 17 36.5 21"/><path d="M24 17 Q32 10 40 17"/></g><circle cx="32" cy="24" r="1.6" fill="#7ee081"/><rect x="6" y="29" width="52" height="25" rx="8" fill="var(--fur)"/><rect x="10" y="31.5" width="44" height="2.5" rx="1.25" fill="#fff" opacity=".22"/><rect x="15" y="35" width="30" height="16" rx="6" fill="#eef1f4"/><circle cx="25.5" cy="41.5" r="2.9" fill="#2b2622"/><circle cx="26.4" cy="40.5" r="0.9" fill="#fff"/><circle cx="38.5" cy="41.5" r="2.9" fill="#2b2622"/><circle cx="39.4" cy="40.5" r="0.9" fill="#fff"/><ellipse cx="22" cy="46" rx="2.3" ry="1.4" fill="#f29b9b" opacity=".75"/><ellipse cx="42" cy="46" rx="2.3" ry="1.4" fill="#f29b9b" opacity=".75"/><path d="M29 45.5 Q32 48.3 35 45.5" fill="none" stroke="#6b4a36" stroke-width="1.7" stroke-linecap="round"/><circle cx="51" cy="38" r="1.5" fill="#7ee081"/><circle cx="51" cy="43" r="1.5" fill="#7ee081"/><circle cx="51" cy="48" r="1.5" fill="#f0a33a"/><g fill="#000" opacity=".22"><rect x="9.5" y="37" width="2" height="10" rx="1"/></g></svg>
