<svg xmlns="http://www.w3.org/2000/svg" viewBox="0 0 64 64" style="--fur: var(--avatar-color, #9a6b45)"><rect x="10" y="16" width="44" height="40" rx="11" fill="var(--fur)"/><path d="M20 15 V8 Q20 5 23 5 H41 Q44 5 44 8 V15 Z" fill="#3a3634"/><rect x="20" y="11" width="24" height="3" fill="var(--fur)"/><rect x="20" y="11" width="24" height="3" fill="#fff" opacity=".25"/><path d="M11 15 H53 Q53 18.5 50 18.5 H14 Q11 18.5 11 15 Z" fill="#3a3634"/><rect x="15.5" y="22" width="33" height="29" rx="8" fill="#eef1f4"/><g fill="#8fd3ff" opacity=".6"><circle cx="25" cy="31" r="5"/><circle cx="39" cy="31" r="5"/></g><g fill="none" stroke="#fff" stroke-width="1.2" stroke-linecap="round"><path d="M22 29.5 Q23 27.6 25.2 27.6"/><path d="M36 29.5 Q37 27.6 39.2 27.6"/></g><g fill="none" stroke="#2b2622" stroke-width="1.7"><circle cx="25" cy="31" r="5"/><circle cx="39" cy="31" r="5"/><path d="M30 31 Q32 29.5 34 31"/></g><g fill="#2b2622"><path d="M20 25 Q25 21.5 30 25 Q25 24 20 26 Z"/><path d="M44 25 Q39 21.5 34 25 Q39 24 44 26 Z"/></g><ellipse cx="32" cy="38" rx="3.4" ry="3" fill="#f2b39a"/><path d="M23.5 43 Q27.5 39.5 32 42 Q36.5 39.5 40.5 43 Q36.5 46 32 44 Q27.5 46 23.5 43 Z" fill="#2b2622"/></svg>
